<svg width="367" height="401" viewBox="0 0 367 401" fill="none" xmlns="http://www.w3.org/2000/svg">
<g clip-path="url(#clip0_301_221)">
<path d="M208.93 29.4785L61.9935 110.416C45.0196 132.179 367.544 133.524 364.882 110.496L222.398 29.5585C218.342 27.2548 213.025 27.2232 208.93 29.4785Z" fill="#11AD94"/>
<path opacity="0.2" d="M208.93 29.4785L61.9935 110.416C45.0196 132.179 367.544 133.524 364.882 110.496L222.398 29.5585C218.342 27.2548 213.025 27.2232 208.93 29.4785Z" fill="black"/>
<path opacity="0.8" d="M364.273 401L326.896 400.203H70.6001L0 398.61C234.06 343.293 162.094 348.056 364.273 401Z" fill="#F2F2F2"/>
<path d="M329.863 398.61L326.896 400.203H70.6001C245.798 364.039 140.761 367.223 329.863 398.61Z" fill="#E6E6E6"/>
<path d="M206.023 22.7218H217.054L213.334 1.75464C213.104 0.459241 212.224 0 211.539 0C210.854 0 209.973 0.459241 209.743 1.75464L206.023 22.7218Z" fill="#3F3D56"/>
<path d="M217.14 91.9021H204.978V388.541H217.14V91.9021Z" fill="#3F3D56"/>
<path d="M211.093 138.21C205.904 138.21 201.027 136.2 197.339 132.539L166.644 102.064L169.151 99.5383L199.847 130.013C202.899 133.043 206.928 134.698 211.249 134.649C215.55 134.609 219.567 132.886 222.562 129.8L251.893 99.5621L254.448 102.041L225.117 132.278C221.455 136.053 216.542 138.159 211.283 138.209C211.22 138.21 211.156 138.21 211.093 138.21Z" fill="#3F3D56"/>
<path d="M215.346 114.944C200.243 114.944 185.02 114.892 170.244 114.787C138.94 114.565 112.213 114.125 92.9531 113.515C60.1254 112.476 59.7759 111.295 59.6263 110.791C59.5921 110.675 59.5802 110.449 59.8893 110.245L206.423 13.8815C209.946 11.5584 214.481 11.59 217.973 13.9644L366.12 110.324C366.429 110.534 366.413 110.761 366.377 110.877C366.192 111.47 365.631 113.272 300.584 114.331C275.835 114.733 245.841 114.944 215.346 114.944Z" fill="#11AD94"/>
<path d="M243.558 257.926L224.987 257.946C222.907 262.568 225.749 267.973 229.382 271.506C233.015 275.039 237.571 277.749 240.254 282.049C246.207 291.589 240.597 304.135 242.563 315.207C245.211 330.117 260.842 339.499 265.601 353.875C268.294 362.006 267.07 371.34 262.372 378.503C261.505 379.825 260.503 381.131 260.2 382.683C259.787 384.793 260.898 387.111 262.801 388.111C264.705 389.112 267.244 388.712 268.748 387.176C267.279 388.845 267.761 391.664 269.41 393.156C271.059 394.648 273.516 394.966 275.692 394.507C282.744 393.018 286.293 384.872 286.579 377.67C286.864 370.469 285.057 363.172 286.467 356.104C287.366 366.248 298.843 372.689 299.742 382.833C299.909 384.713 289.521 390.367 290.488 391.987C292.931 396.085 298.756 396.099 303.501 395.608C311.671 394.762 320.743 393.446 325.867 387.028C329.32 382.703 330.214 376.884 330.328 371.351C330.625 356.909 326.322 342.406 318.197 330.461C307.383 314.564 290.193 303.297 281.704 286.046C278.819 280.183 277.053 273.826 274.246 267.925C271.439 262.024 267.31 256.378 261.336 253.73C255.362 251.082 247.319 252.388 243.872 257.939" fill="#3F3D56"/>
<path d="M301.144 384.84C300.774 384.84 300.412 384.761 300.071 384.602C299.806 384.479 299.691 384.163 299.814 383.898C299.938 383.633 300.253 383.517 300.519 383.642C301.104 383.914 301.667 383.735 302.036 383.537C302.795 383.131 303.389 382.298 303.515 381.465C303.758 379.855 302.952 378.211 302.24 376.76C300.165 372.529 298.113 367.999 297.805 363.211C297.457 357.813 299.686 352.784 303.482 350.401C306.304 348.629 310.034 348.165 313.987 349.094C317.372 349.89 320.492 351.56 323.655 353.348C323.91 353.492 324 353.815 323.856 354.07C323.712 354.325 323.389 354.415 323.134 354.271C319.922 352.456 316.998 350.892 313.744 350.127C310.07 349.262 306.625 349.679 304.046 351.298C300.575 353.478 298.54 358.127 298.863 363.143C299.158 367.737 301.164 372.158 303.192 376.293C303.934 377.804 304.856 379.686 304.563 381.623C304.387 382.788 303.592 383.906 302.538 384.472C302.08 384.717 301.606 384.84 301.144 384.84Z" fill="#2F2E41"/>
<path d="M270.247 267.153C272.973 272.561 271.535 279.744 266.937 283.685C265.949 284.532 264.838 285.24 263.955 286.195C263.072 287.15 262.424 288.444 262.647 289.725C259.635 286.737 256.564 283.667 254.742 279.835C252.92 276.003 252.564 271.193 254.935 267.675C256.066 265.996 257.715 264.737 258.999 263.172C260.282 261.607 261.209 259.476 260.514 257.575" fill="#2F2E41"/>
<path d="M324.415 371.021C322.975 375.425 325.346 380.493 329.238 383.01C333.129 385.527 338.157 385.787 342.649 384.649C351.336 382.447 358.47 375.01 360.308 366.239C361.073 362.591 361.019 358.682 362.75 355.382C363.838 353.307 365.634 351.433 365.686 349.091C365.728 347.188 364.493 345.381 362.808 344.496C361.122 343.611 359.07 343.58 357.255 344.156C352.931 345.531 350.277 349.91 348.901 354.233C347.526 358.557 347.012 363.18 345.013 367.253C343.013 371.326 338.88 374.882 334.385 374.261C330.498 373.724 327.208 370.219 323.314 370.696" fill="#3F3D56"/>
<path d="M107.218 316.059C101.96 316.865 98.1143 320.231 98.6278 323.576C99.1412 326.922 103.819 328.981 109.078 328.174C111.184 327.88 113.188 327.087 114.924 325.86L152.957 320.13L154.39 306.991L113.49 316.515C111.466 315.864 109.315 315.708 107.218 316.059Z" fill="#FFB6B6"/>
<path d="M203.027 288.664L194.406 306.958L151.067 321.548L153.178 306.679L193.172 287.78L203.027 288.664Z" fill="#E6E6E6"/>
<path d="M123.093 358.126L115.353 377.704L105.336 370.874L111.255 350.386L123.093 358.126Z" fill="#FFB6B6"/>
<path d="M90.767 350.841L70.2788 370.419L78.4741 379.069L99.4176 362.679L90.767 350.841Z" fill="#FFB6B6"/>
<path d="M206.867 287.1L206.639 285.507L201.403 275.263L184.102 279.816L187.289 293.93L206.867 287.1Z" fill="#FFB6B6"/>
<path d="M199.582 355.395L200.114 362.233C200.114 362.233 202.314 390.908 184.557 393.184C166.801 395.461 159.061 397.737 148.589 379.981L132.199 350.842L122.625 362.233L109.889 352.208C109.889 352.208 118.995 316.695 126.28 315.329C127.191 315.158 128.101 315.073 128.997 315.054C135.028 314.929 140.713 317.878 144.322 322.712L164.98 350.386L172.492 346.972L199.582 355.395Z" fill="#2F2E41"/>
<path d="M101.239 376.793L105.839 370.005L116.398 375.018C116.398 375.018 119.906 387.265 115.808 388.631C111.711 389.997 100.328 388.176 100.328 388.176C100.328 388.176 79.3849 392.729 78.9296 388.631C78.4743 384.533 88.4908 383.623 88.4908 383.623L101.239 376.793Z" fill="#FFB6B6"/>
<path d="M145.858 371.329L114.215 351.392L98.0518 365.866L87.1248 353.118C87.1248 353.118 107.158 323.524 113.076 322.158C118.995 320.792 128.556 319.881 128.556 319.881L157.695 346.744L145.858 371.329Z" fill="#2F2E41"/>
<path d="M72.4851 368.671L79.1765 378.217L78.9145 381.161C78.9145 381.161 76.1979 392.994 69.8237 388.991C63.4496 384.988 62.9944 384.078 62.9944 384.078C62.9944 384.078 44.7826 388.175 42.9615 380.891C41.1403 373.606 46.1485 374.972 46.1485 374.972L50.6961 377.704L68.4225 371.778L72.4851 368.671Z" fill="#FFB6B6"/>
<path d="M189.566 284.824C197.612 284.824 204.135 278.301 204.135 270.255C204.135 262.208 197.612 255.685 189.566 255.685C181.519 255.685 174.996 262.208 174.996 270.255C174.996 278.301 181.519 284.824 189.566 284.824Z" fill="#FFB6B6"/>
<path d="M186.151 290.971L207.094 284.596C207.094 284.596 215.29 303.719 213.924 312.369C212.558 321.02 200.114 362.233 200.114 362.233L172.492 346.972C172.492 346.972 172.037 337.866 170.671 333.768C169.305 329.67 164.98 317.15 174.541 306.678C184.102 296.206 186.151 290.971 186.151 290.971Z" fill="#E6E6E6"/>
<path d="M140.056 386.574C136.648 390.657 135.992 395.726 138.591 397.894C141.19 400.063 146.059 398.511 149.468 394.425C150.852 392.812 151.83 390.891 152.319 388.822L184.584 352.644L174.585 347.239L145.06 382.765C143.112 383.617 141.396 384.922 140.056 386.574Z" fill="#FFB6B6"/>
<path d="M202.216 300.156L207.166 319.764L182.938 358.547L185.124 358.048L171.883 348.32L175.132 345.718L194.039 305.728L202.216 300.156Z" fill="#E6E6E6"/>
<path d="M176.135 267.75C179.871 267.742 180.083 267.766 180.688 267.75C185.322 267.628 186.534 265.805 188.883 265.929C193.075 266.151 187.542 287.171 185.241 296.889C182.984 306.42 190.611 314.96 191.159 315.556C198.902 323.976 212.501 325.516 214.835 321.93C216.723 319.028 210.029 314.615 211.648 308.272C213.229 302.071 220.533 302.731 222.575 296.889C224.713 290.772 217.528 287.686 213.013 272.759C210.421 264.186 210.88 262.589 208.46 257.279C201.994 243.086 170.3 249.129 173.858 262.287C174.547 264.832 172.715 267.759 176.135 267.75Z" fill="#2F2E41"/>
</g>
<defs>
<clipPath id="clip0_301_221">
<rect width="366.396" height="401" fill="white"/>
</clipPath>
</defs>
</svg>
