<svg width="677.989258" height="480.988770" viewBox="0 0 677.989 480.989" fill="none" xmlns="http://www.w3.org/2000/svg" xmlns:xlink="http://www.w3.org/1999/xlink">
	<path d="M349.211 42.2819L491.543 42.2819C495.884 42.2819 499.402 45.7964 499.402 50.1318L499.402 152.967C499.402 157.302 495.884 160.817 491.543 160.817L349.211 160.817C344.871 160.817 341.352 157.302 341.352 152.967L341.352 50.1318C341.352 45.7964 344.871 42.2819 349.211 42.2819Z" fill-rule="evenodd" fill="#F2F6FB"/>
	<path d="M365.116 151.595C357.216 151.595 350.811 145.132 350.811 137.161C350.811 129.189 357.216 122.727 365.116 122.727C373.017 122.727 379.421 129.189 379.421 137.161C379.421 145.132 373.017 151.595 365.116 151.595ZM365.147 137.1C366.203 137.1 367.059 136.248 367.059 135.197C367.059 134.145 366.203 133.293 365.147 133.293C364.092 133.293 363.236 134.145 363.236 135.197C363.236 136.248 364.092 137.1 365.147 137.1ZM365.147 138.052C363.234 138.052 361.683 139.597 361.683 141.503L368.612 141.503C368.612 139.597 367.061 138.052 365.147 138.052Z" fill-rule="evenodd" fill="#D8DEED"/>
	<path d="M350.811 68.2324C350.811 67.3635 351.512 66.6592 352.384 66.6592L452.681 66.6592C453.549 66.6592 454.254 67.3647 454.254 68.2324L454.254 111.177C454.254 112.046 453.552 112.75 452.681 112.75L352.384 112.75C351.515 112.75 350.811 112.044 350.811 111.177L350.811 68.2324ZM389.681 134.472L468.63 134.472C470.213 134.472 471.497 135.755 471.497 137.336C471.497 138.918 470.213 140.2 468.63 140.2L389.681 140.2C388.098 140.2 386.814 138.918 386.814 137.336C386.814 135.755 388.098 134.472 389.681 134.472ZM389.681 143.78L482.983 143.78C484.566 143.78 485.85 145.062 485.85 146.644C485.85 148.225 484.566 149.507 482.983 149.507L389.681 149.507C388.098 149.507 386.814 148.225 386.814 146.644C386.814 145.062 388.098 143.78 389.681 143.78ZM389.681 125.165L448.536 125.165C450.119 125.165 451.403 126.447 451.403 128.029C451.403 129.61 450.119 130.893 448.536 130.893L389.681 130.893C388.098 130.893 386.814 129.61 386.814 128.029C386.814 126.447 388.098 125.165 389.681 125.165ZM341.352 48.9856C341.352 45.2832 344.356 42.2819 348.062 42.2819L492.998 42.2819C496.704 42.2819 499.708 45.2825 499.708 48.9856L499.708 55.6895L341.352 55.6895L341.352 48.9856Z" fill-rule="evenodd" fill="#E1E5F0"/>
	<path d="M466.484 102.668L485.125 102.668C487.912 102.668 490.172 104.925 490.172 107.709C490.172 110.493 487.912 112.75 485.125 112.75L466.484 112.75C463.697 112.75 461.438 110.493 461.438 107.709C461.438 104.925 463.697 102.668 466.484 102.668Z" fill-rule="evenodd" fill="#A339FF"/>
	<path d="M353.252 49.1382C353.252 50.7369 351.954 52.0331 350.353 52.0331C348.752 52.0331 347.455 50.7369 347.455 49.1382C347.455 47.5394 348.752 46.2434 350.353 46.2434C351.954 46.2434 353.252 47.5394 353.252 49.1382Z" fill-rule="evenodd" fill="#FF5645"/>
	<path d="M362.71 49.1382C362.71 50.7369 361.413 52.0331 359.812 52.0331C358.211 52.0331 356.913 50.7369 356.913 49.1382C356.913 47.5394 358.211 46.2434 359.812 46.2434C361.413 46.2434 362.71 47.5394 362.71 49.1382Z" fill-rule="evenodd" fill="#FFCB3D"/>
	<path d="M372.474 49.1382C372.474 50.7369 371.176 52.0331 369.575 52.0331C367.975 52.0331 366.677 50.7369 366.677 49.1382C366.677 47.5394 367.975 46.2434 369.575 46.2434C371.176 46.2434 372.474 47.5394 372.474 49.1382Z" fill-rule="evenodd" fill="#3ABF7C"/>
	<path d="M479.656 326.687L479.656 298.467C479.656 281.354 479.656 264.28 479.656 247.206L479.656 221.026C479.656 220.084 463.35 219.299 443.742 219.299L439.655 219.299C420.086 219.299 403.74 220.084 403.74 221.026L403.74 326.766C403.74 327.708 420.047 328.493 439.655 328.493L443.742 328.493C463.31 328.532 479.656 327.708 479.656 326.687Z" fill-rule="evenodd" fill="#D8DEED"/>
	<path d="M363.7 423.753L363.857 423.831C364.682 424.263 365.743 424.027 366.136 423.282L412.149 338.855C412.582 338.07 412.228 337.089 411.403 336.657L411.246 336.578C410.42 336.147 409.359 336.382 408.966 337.128L397.571 358.009C390.145 371.668 382.718 385.288 375.252 398.947L362.953 421.476C362.521 422.261 362.875 423.282 363.7 423.753Z" fill-rule="evenodd" fill="#D8DEED"/>
	<path d="M477.967 335.204L449.164 335.204C431.718 335.204 414.271 335.204 396.864 335.204L370.144 335.204C369.201 335.204 368.375 335.99 368.375 336.932L368.375 337.128C368.375 338.07 369.161 338.855 370.144 338.855L478.045 338.855C478.988 338.855 479.813 338.07 479.813 337.128L479.813 336.932C479.813 335.99 478.988 335.204 477.967 335.204Z" fill-rule="evenodd" fill="#D8DEED"/>
	<path d="M491.995 421.476L479.696 398.947C472.269 385.288 464.843 371.668 457.377 358.009L445.981 337.128C445.588 336.382 444.528 336.107 443.703 336.578L443.545 336.657C442.72 337.089 442.367 338.109 442.799 338.855L488.812 423.282C489.205 424.027 490.266 424.302 491.091 423.831L491.249 423.753C492.074 423.282 492.427 422.261 491.995 421.476Z" fill-rule="evenodd" fill="#D8DEED"/>
	<path d="M295.734 323.526C298.559 324.928 299.523 326.316 299.673 327.529C299.894 329.572 299.416 331.213 298.277 333.911C296.072 339.308 294.198 344.778 292.692 350.394C292.25 350.299 291.811 350.199 291.372 350.094C292.292 353.6 292.26 356.282 292.26 356.282C250.975 356.282 230.676 356.282 231.365 356.282C232.397 356.282 239.863 336.089 266.208 334.036C266.964 333.976 267.7 333.938 268.413 333.921C268.574 333.251 268.851 332.646 269.354 331.732C268.25 329.029 267.4 322.695 267.111 320.058C267.111 319.949 267.148 319.841 267.186 319.733C267.333 319.443 267.741 319.299 268.075 319.443L276.414 323.526C277.838 323.006 279.344 322.532 280.934 322.059C282.438 321.6 283.943 321.208 285.358 320.849L288.344 313.1C288.454 312.803 288.821 312.618 289.115 312.766C289.225 312.803 289.298 312.878 289.372 312.989C290.917 315.166 294.713 320.719 295.734 323.526Z" fill-rule="evenodd" fill="#FFCB3D"/>
	<path d="M229.782 353.794C229.471 351.83 230.3 350.634 232.27 350.208C240.393 349.759 247.62 350.361 253.952 352.015C260.285 353.668 263.973 355.112 265.016 356.345L232.27 356.345C230.879 356.345 229.782 355.22 229.782 353.794ZM294.293 340.505C295.24 339.408 298.154 334.694 298.154 334.694C298.154 334.694 294.948 344.415 293.018 350.444C293.127 349.933 291.598 354.025 291.416 352.966L291.416 352.929C291.161 351.723 290.177 350.846 288.939 350.773C287.773 350.7 286.535 350.663 285.224 350.663C283.548 350.663 281.836 350.773 280.161 350.992L277.721 343.574C280.088 344.78 282.783 345.219 285.406 344.999C286.316 344.926 287.19 344.744 288.064 344.488C290.468 343.793 292.617 342.368 294.293 340.505ZM285.531 331.535C286.048 332.113 286.89 332.313 287.62 331.984C288.284 331.597 288.636 330.85 288.496 330.091C288.437 329.772 288.648 329.464 288.968 329.405C289.288 329.346 289.596 329.557 289.655 329.877C289.889 331.142 289.292 332.392 288.181 333.02L288.14 333.041C287.152 333.502 286.038 333.373 285.193 332.795C284.929 333.427 284.404 333.968 283.696 334.288C282.272 334.828 280.677 334.296 279.959 333.04C279.798 332.758 279.896 332.398 280.179 332.237C280.462 332.076 280.822 332.174 280.983 332.456C281.407 333.198 282.386 333.525 283.243 333.201C283.892 332.907 284.263 332.307 284.196 331.719C284.194 331.715 284.192 331.711 284.19 331.707C284.02 331.411 283.985 331.041 284.02 330.707C284.054 330.448 284.19 330.226 284.361 330.115C284.702 329.855 285.214 330.004 285.418 330.374C285.599 330.73 285.614 331.164 285.531 331.535ZM275.577 331.551C275.991 332.329 275.611 333.44 275.197 333.514C274.887 333.551 274.507 333.144 274.369 332.885C274.196 332.589 274.162 332.218 274.196 331.885C274.231 331.625 274.369 331.403 274.542 331.292C274.887 331.033 275.37 331.181 275.577 331.551ZM293.273 325.271C293.656 326.049 293.308 327.086 292.89 327.234C292.576 327.271 292.192 326.864 292.053 326.605C291.878 326.308 291.844 325.938 291.879 325.605C291.914 325.345 292.053 325.123 292.227 325.012C292.576 324.753 293.064 324.901 293.273 325.271Z" fill-rule="evenodd" fill="#DE6903"/>
	<path d="M342.354 420.839L404.13 420.839C405.055 420.839 405.805 421.588 405.805 422.511C405.805 423.435 405.055 424.184 404.13 424.184L342.354 424.184C341.429 424.184 340.679 423.435 340.679 422.511C340.679 421.588 341.429 420.839 342.354 420.839ZM411.645 420.839L450.703 420.839C451.628 420.839 452.377 421.588 452.377 422.511C452.377 423.435 451.628 424.184 450.703 424.184L411.645 424.184C410.72 424.184 409.97 423.435 409.97 422.511C409.97 421.588 410.72 420.839 411.645 420.839Z" fill-rule="evenodd" fill="#FF5645"/>
	<path d="M450.266 420.839L411.725 420.839L414.815 400.533L442.281 400.533L450.266 420.839ZM405.167 421.198C404.882 420.973 404.521 420.839 404.13 420.839L342.354 420.839C342.293 420.839 342.232 420.842 342.173 420.848C342.152 420.677 342.142 420.474 342.146 420.231C342.188 419.972 342.194 419.674 342.275 419.378C342.761 417.602 343.35 416.422 345.073 415.374C346.795 414.325 348.554 413.389 350.386 412.565C357.145 409.446 359.454 409.486 363.898 406.625C365.737 405.429 367.428 404.046 369.007 402.548C370.06 401.55 372.335 399.928 375.834 397.683L402.948 397.765L405.167 421.198Z" fill-rule="evenodd" fill="#474961"/>
	<path d="M449.949 333.461C449.887 351.649 449.261 375.812 449.045 384.124C449.008 385.281 449.159 388.414 446.887 390.389C446.244 390.968 445.6 391.206 444.388 391.717C443.442 392.125 439.201 393.351 430.719 394.032C430.189 394.066 429.622 394.1 429.053 394.066C420.307 393.76 418.148 393.215 414.779 392.261C412.545 391.648 410.917 389.742 410.689 387.495C409.629 377.586 406.714 350.585 406.487 348.202C406.184 345.171 405.918 341.732 405.691 337.817L405.571 335.984L395.093 331.858C399.469 348.591 403.714 365.923 407.509 383.153C407.698 383.998 408.039 385.898 407.055 387.692C405.237 391.104 400.504 390.928 389.183 392.265C375.854 393.849 370.289 395.502 367.26 392.125C366.237 391.034 365.896 389.908 365.783 389.38C363.019 375.695 349.312 335.975 343.973 307.477C343.973 307.407 343.936 307.372 343.936 307.301C342.231 298.119 348.63 289.464 358.134 288.303C361.277 287.916 364.117 287.543 367.26 287.156C368.211 287.045 369.162 287.013 370.102 287.055L417.016 286.243C444.84 286.001 441.009 282.775 449.71 286.773C455.51 289.439 459.459 297.028 461.558 309.54C462.309 319.054 458.439 327.027 449.949 333.461Z" fill-rule="evenodd" fill="#8F4AFF"/>
	<g opacity="0.176986">
		<path d="M449.997 333.425C450 332.474 450.002 331.541 450.002 330.626C450.002 323.544 450.04 317.449 450.116 313.533C450.191 310.435 450.759 293.41 443.414 289.869C442.77 289.563 442.126 289.324 440.839 288.882C439.817 288.541 434.516 286.771 427.7 287.043C423.271 287.213 416.606 287.486 411.116 291.742C403.543 297.632 403.732 306.928 403.808 308.426L405.621 336.003L395.147 331.88C392.23 320.723 389.254 309.832 386.315 299.415C384.307 292.324 377.595 287.417 370.233 287.053L417.016 286.243C444.841 286.001 441.009 282.775 449.71 286.773C455.51 289.439 459.459 297.028 461.558 309.54C462.308 319.036 458.454 326.997 449.997 333.425Z" fill-rule="evenodd" fill="#444444"/>
	</g>
	<path d="M410.093 216.912C410.548 216.716 411.014 216.541 411.49 216.388L419.57 213.694C420.039 213.608 420.505 213.534 420.969 213.47C421.606 212.74 422.903 212.121 425.152 211.431C433.14 208.939 443.335 213.084 446.966 222.373C450.131 230.467 454.335 239.611 453.943 239.731C453.859 239.757 452.025 241.068 449.511 241.88C453.146 255.584 455.105 264.758 455.388 269.401C455.949 278.65 452.835 284.849 442.282 285.634C431.728 286.42 417.04 287.526 415.313 284.46C414.204 282.488 408.988 270.313 399.666 247.935C396.18 249.062 394.36 249.639 394.206 249.666C393.719 249.75 392.065 244.308 390.988 235.702C389.752 225.827 395.749 217.591 405.685 215.907C407.328 215.621 408.797 215.956 410.093 216.912Z" fill-rule="evenodd" fill="#FF5645"/>
	<g opacity="0.176986">
		<path d="M410.117 216.93C400.233 221.024 395.326 235.048 398.617 245.418C398.981 246.268 399.339 247.104 399.692 247.927C396.189 249.059 394.36 249.639 394.206 249.666C393.719 249.75 392.065 244.308 390.988 235.702C389.752 225.827 395.749 217.591 405.685 215.907C407.338 215.619 408.815 215.96 410.117 216.93L410.117 216.93Z" fill-rule="evenodd" fill="#444444"/>
	</g>
	<path d="M393.802 218.084C393.802 218.084 393.083 220.909 396.907 220.129C400.731 219.348 401.83 218.976 401.83 218.976L400.845 216.411L393.802 218.084Z" fill-rule="evenodd" fill="#482D1F"/>
	<path d="M415.423 216.097L422.465 248.938L424.139 240.023C432.963 241.75 440.145 242.613 445.684 242.613C445.713 242.613 445.743 242.612 445.773 242.612C444.525 247.38 441.568 268.069 436.967 276.074C431.151 286.194 427.757 287.305 419.168 286.478C418.289 286.394 417.459 286.238 416.676 286.012C417.052 286.135 417.439 286.237 417.838 286.321L373.405 287.003L373.401 287.015L373.267 287.005L373.095 287.007C373.013 287.009 372.934 286.997 372.858 286.975L354.679 285.64C351.762 285.426 349.076 283.973 347.303 281.65L345.26 278.973C344.775 278.339 344.462 277.591 344.35 276.801C343.985 274.248 345.762 271.884 348.318 271.521L353.75 270.748C357.473 270.218 361.253 270.225 364.974 270.768L376.188 272.406C384.703 269.733 396.065 266.222 398.902 265.617L395.379 249.29L399.543 247.657C400.851 250.638 402.081 253.438 403.234 256.057C401.928 243.614 402.075 229.872 400.504 217.665L396.566 217.75C394.219 218.679 389.296 220.24 388.767 216.932C388.767 216.932 395.279 214.292 399.86 212.359L400.201 212.062C400.504 211.802 400.77 211.653 401.148 211.542C401.224 211.505 401.299 211.505 401.375 211.505L401.626 211.469C400.945 211.519 400.466 211.507 400.3 211.489C397.133 211.351 393.251 205.751 391.383 197.59C391.211 196.933 391.151 196.267 391.054 195.603L390.577 188.965C390.445 187.484 390.731 186.004 391.373 184.68C391.436 184.525 391.501 184.408 391.566 184.29C391.797 183.897 392.029 183.504 392.266 183.185C393.179 181.913 394.31 180.957 395.502 180.258C398.339 178.82 401.651 178.461 403.52 178.524C403.787 178.539 404.626 178.579 405.809 178.626C406.926 178.792 407.996 178.849 409.093 178.792C409.699 178.777 410.198 179.257 410.251 179.849L410.719 189.362C410.722 189.432 410.74 189.531 410.774 189.66C414.587 188.111 417.317 188.995 418.963 192.311C421.433 197.285 419.197 196.209 418.099 197.534C417.307 198.461 416.321 198.918 415.659 199.162C415.535 199.188 415.409 199.259 415.298 199.358L418.264 199.386L418.788 201.431L418.981 204.026L420.93 213.523C420.93 213.523 418.181 215.028 415.423 216.097ZM408.801 210.446L408.578 209.378C408.485 209.417 408.39 209.457 408.294 209.496C405.143 210.812 405.325 210.722 405.105 210.815C404.633 210.96 404.173 211.075 403.736 211.167L407.13 210.687L408.801 210.446ZM439.767 400.641L414.885 400.641L415.421 392.428C418.479 393.279 420.879 393.778 429.101 394.066C429.669 394.1 430.237 394.066 430.767 394.032C434.814 393.707 437.896 393.258 440.114 392.833L442.282 400.533L439.767 400.641ZM401.864 390.73L402.948 397.765L375.692 397.765L377.49 393.778C380.54 393.43 384.369 392.843 389.23 392.265C394.981 391.586 399.032 391.297 401.864 390.73Z" fill-rule="evenodd" fill="#DB9E75"/>
	<path d="M411.114 210.161L409.683 210.358L408.883 210.473C408.856 210.466 408.829 210.458 408.801 210.45L408.577 209.376L412.641 207.656C412.094 208.894 411.585 209.729 411.114 210.161Z" fill-rule="evenodd" fill="#482D1F"/>
	<path d="M393.783 196.787C393.917 197.447 394.164 198.508 393.905 199.015C393.484 199.835 392.005 198.171 392.12 196.892C392.187 196.364 392.431 196.12 392.732 196.094C393.22 196.014 393.664 196.312 393.783 196.787ZM401.83 195.387C401.964 196.047 402.211 197.108 401.952 197.615C401.531 198.435 400.052 196.771 400.167 195.492C400.233 194.964 400.478 194.719 400.779 194.693C401.267 194.614 401.711 194.912 401.83 195.387Z" fill-rule="evenodd" fill="#482D1F"/>
	<path d="M395.643 196.708L395.627 200.441C395.666 200.899 396.051 201.295 396.496 201.256C396.758 201.254 396.925 201.24 397.596 201.168C397.896 201.137 398.101 201.116 398.344 201.095C398.552 201.077 398.707 200.896 398.688 200.692C398.67 200.487 398.487 200.336 398.279 200.354C398.03 200.376 397.821 200.397 397.517 200.429C396.874 200.498 396.717 200.511 396.459 200.514C396.445 200.515 396.387 200.455 396.383 200.408L396.399 196.708C396.4 196.503 396.231 196.337 396.022 196.336C395.813 196.336 395.643 196.502 395.643 196.708Z" fill-rule="evenodd" fill="#482D1F"/>
	<path d="M399.104 203.196C399.362 203.099 399.98 202.785 400.022 202.408C400.016 202.334 400.044 202.22 400.003 202.186C399.835 202.014 399.358 202.204 398.689 202.373C397.499 202.662 396.48 202.75 396.48 202.75C396.48 202.75 396.876 203.35 397.081 203.519C397.535 203.928 398.703 203.38 399.104 203.196Z" fill-rule="evenodd" fill="#482D1F"/>
	<path d="M408.252 192.637L409.507 192.218C410.224 191.979 410.589 193.035 409.873 193.274L408.618 193.693L407.671 194.009C407.778 194.354 407.851 194.716 407.884 195.091C408.143 197.995 405.955 200.555 402.997 200.809C400.423 201.03 398.114 199.433 397.387 197.101L396.725 197.203L396.177 197.288C396.289 200.085 394.143 202.502 391.273 202.749C388.314 203.003 385.707 200.855 385.448 197.951C385.189 195.046 387.377 192.486 390.335 192.232C392.989 192.004 395.375 193.712 396.015 196.184L396.548 196.102L396.725 197.203C396.074 196.731 396.071 196.715 396.07 196.699L395.476 196.268L396.015 196.184C396.041 196.287 396.065 196.392 396.085 196.498C396.134 196.307 396.283 196.143 396.548 196.102L397.171 196.006C396.916 193.104 399.103 190.546 402.06 190.292C404.237 190.105 406.225 191.22 407.226 192.98L408.252 192.637ZM395.652 197.369C395.339 197.418 395.047 197.205 395.002 196.897C394.958 196.595 395.169 196.315 395.476 196.268L396.548 196.102L397.171 196.006C397.171 196.007 397.172 196.009 397.172 196.011C397.206 196.388 397.279 196.753 397.387 197.101L396.725 197.203L395.652 197.369ZM396.725 197.203C396.453 197.245 396.257 197.127 396.153 196.954L396.725 197.203ZM402.897 199.698C405.231 199.498 406.957 197.478 406.752 195.188C406.548 192.897 404.492 191.203 402.158 191.403C399.825 191.604 398.099 193.623 398.303 195.913C398.507 198.204 400.564 199.899 402.897 199.698ZM390.435 193.343C388.102 193.543 386.375 195.563 386.58 197.853C386.784 200.144 388.841 201.839 391.174 201.638C393.507 201.438 395.233 199.418 395.029 197.128C395.022 197.05 395.013 196.974 395.002 196.897C394.685 194.716 392.68 193.15 390.435 193.343Z" fill-rule="evenodd" fill="#482D1F"/>
	<g opacity="0.200000">
		<path d="M417.816 286.321L373.383 287.003L373.379 287.015L373.245 287.005L373.073 287.007C372.991 287.009 372.912 286.997 372.836 286.975L354.657 285.64C351.74 285.426 349.054 283.973 347.281 281.65L345.238 278.973C344.753 278.339 344.44 277.591 344.328 276.801C343.963 274.248 345.74 271.884 348.296 271.521L353.728 270.748C357.451 270.218 361.231 270.225 364.952 270.768L376.167 272.406C384.681 269.733 396.043 266.222 398.88 265.617L395.357 249.29L399.521 247.657C400.905 250.812 402.203 253.764 403.413 256.514C403.624 258.15 403.869 259.778 404.155 261.397C406.951 276.001 410.191 284.73 417.816 286.321Z" fill-rule="evenodd" fill="#8C2A00"/>
	</g>
	<path d="M422.072 249.134C421.983 248.838 422.154 248.528 422.455 248.441C422.756 248.353 423.072 248.521 423.161 248.817L426.91 261.233C426.999 261.528 426.827 261.838 426.526 261.926C426.226 262.013 425.91 261.845 425.82 261.549L422.072 249.134ZM445.795 243.068C445.481 243.065 445.229 242.814 445.231 242.506C445.234 242.198 445.49 241.95 445.804 241.953C447.385 241.964 448.868 241.738 450.256 241.275C450.553 241.176 450.876 241.332 450.977 241.623C451.078 241.915 450.919 242.231 450.622 242.331C449.111 242.835 447.501 243.08 445.795 243.068Z" fill-rule="evenodd" fill="#482D1F"/>
	<path d="M414.367 199.027C414.943 198.863 416.646 198.496 417.691 197.233C418.793 195.945 419.335 193.921 418.522 192.05C417.791 190.247 415.845 188.884 414.038 189.077C413.023 189.201 412.236 189.754 412.129 189.838C410.885 190.803 410.387 192.04 410.387 192.04L410.086 192.903C409.937 192.71 409.793 192.53 409.656 192.364C406.758 189.702 405.085 187.855 402.149 185.197C400.674 185.697 391.199 189.008 390.487 188.696C390.487 184.919 391.894 183.703 392.131 183.384C393.044 182.112 394.379 180.877 395.571 180.177C398.408 178.74 401.72 178.38 403.588 178.444C403.856 178.458 404.695 178.498 405.878 178.546C406.221 178.554 406.563 178.561 406.982 178.563C407.969 178.553 408.73 178.562 409.186 178.56C414.953 178.438 417.125 177.654 420.127 178.926C420.302 179.006 420.549 179.12 420.84 179.277C421.039 178.763 421.272 178.284 421.504 177.841C427.852 165.765 435.562 168.499 435.562 168.544C435.562 168.588 441.404 168.588 442.899 174.438C443.048 175.019 444.096 179.125 442.421 182.51C440.174 186.94 433.474 189.667 425.851 187.806C425.944 189.101 425.854 190.162 425.814 190.715C425.399 195.004 423.017 197.709 422.321 198.851C421.392 200.373 420.245 201.906 418.879 203.448C417.176 202.443 415.872 201.271 414.967 199.93C414.771 199.635 414.571 199.333 414.367 199.027Z" fill-rule="evenodd" fill="#482D1F"/>
	<path d="M338.887 276.89C343.161 272.719 351.886 269.449 366.303 277.689C368.501 278.905 367.7 282.726 365.262 282.719L340.144 282.55C338.256 282.563 337.462 278.293 338.887 276.89Z" fill-rule="evenodd" fill="#474961"/>
	<path d="M288.659 356.344L294.003 356.344C296.758 357.195 298.497 358.999 299.217 361.755C299.937 364.512 298.199 367.157 294.003 369.689L293.96 369.68L293.963 369.689L227.95 369.689C223.753 367.157 222.015 364.512 222.735 361.755C223.456 358.999 225.194 357.195 227.95 356.344L288.659 356.344Z" fill-rule="evenodd" fill="#3ABF7C"/>
	<path d="M315.143 191.903L195.06 191.903C190.345 191.903 186.494 188.416 186.494 184.147L186.494 112.524C186.494 108.255 190.345 104.768 195.06 104.768L315.143 104.768C319.858 104.768 323.709 108.255 323.709 112.524L323.709 184.111C323.709 188.416 319.858 191.903 315.143 191.903Z" fill-rule="evenodd" fill="#F2F6FB"/>
	<path d="M186.534 104.299C186.534 99.9624 190.053 96.4469 194.393 96.4469L315.811 96.4469C320.151 96.4469 323.67 99.9645 323.67 104.299L323.67 113.324L186.534 113.324L186.534 104.299Z" fill-rule="evenodd" fill="#E1E5F0"/>
	<path d="M207.654 145.117L222.782 145.117C224.03 145.117 225.042 146.128 225.042 147.374C225.042 148.62 224.03 149.631 222.782 149.631L207.654 149.631C206.406 149.631 205.395 148.62 205.395 147.374C205.395 146.128 206.406 145.117 207.654 145.117ZM207.654 170.237L222.782 170.237C224.03 170.237 225.042 171.248 225.042 172.494C225.042 173.74 224.03 174.751 222.782 174.751L207.654 174.751C206.406 174.751 205.395 173.74 205.395 172.494C205.395 171.248 206.406 170.237 207.654 170.237ZM230.837 145.117L245.966 145.117C247.213 145.117 248.225 146.128 248.225 147.374C248.225 148.62 247.213 149.631 245.966 149.631L230.837 149.631C229.59 149.631 228.578 148.62 228.578 147.374C228.578 146.128 229.59 145.117 230.837 145.117ZM230.837 170.237L245.966 170.237C247.213 170.237 248.225 171.248 248.225 172.494C248.225 173.74 247.213 174.751 245.966 174.751L230.837 174.751C229.59 174.751 228.578 173.74 228.578 172.494C228.578 171.248 229.59 170.237 230.837 170.237ZM254.021 145.117L269.149 145.117C270.397 145.117 271.409 146.128 271.409 147.374C271.409 148.62 270.397 149.631 269.149 149.631L254.021 149.631C252.773 149.631 251.762 148.62 251.762 147.374C251.762 146.128 252.773 145.117 254.021 145.117ZM254.021 170.237L269.149 170.237C270.397 170.237 271.409 171.248 271.409 172.494C271.409 173.74 270.397 174.751 269.149 174.751L254.021 174.751C252.773 174.751 251.762 173.74 251.762 172.494C251.762 171.248 252.773 170.237 254.021 170.237ZM207.654 132.557L235.749 132.557C236.997 132.557 238.009 133.568 238.009 134.814C238.009 136.06 236.997 137.071 235.749 137.071L207.654 137.071C206.406 137.071 205.395 136.06 205.395 134.814C205.395 133.568 206.406 132.557 207.654 132.557ZM271.311 132.557L302.942 132.557C304.19 132.557 305.202 133.568 305.202 134.814C305.202 136.06 304.19 137.071 302.942 137.071L271.311 137.071C270.062 137.071 269.051 136.06 269.051 134.814C269.051 133.568 270.062 132.557 271.311 132.557ZM271.311 157.677L302.942 157.677C304.19 157.677 305.202 158.688 305.202 159.934C305.202 161.18 304.19 162.191 302.942 162.191L271.311 162.191C270.062 162.191 269.051 161.18 269.051 159.934C269.051 158.688 270.062 157.677 271.311 157.677ZM243.805 157.677L249.502 157.677C250.75 157.677 251.762 158.688 251.762 159.934C251.762 161.18 250.75 162.191 249.502 162.191L243.805 162.191C242.557 162.191 241.545 161.18 241.545 159.934C241.545 158.688 242.557 157.677 243.805 157.677ZM257.558 132.557L263.255 132.557C264.503 132.557 265.515 133.568 265.515 134.814C265.515 136.06 264.503 137.071 263.255 137.071L257.558 137.071C256.31 137.071 255.298 136.06 255.298 134.814C255.298 133.568 256.31 132.557 257.558 132.557ZM277.205 145.117L302.942 145.117C304.19 145.117 305.202 146.128 305.202 147.374C305.202 148.62 304.19 149.631 302.942 149.631L277.205 149.631C275.957 149.631 274.945 148.62 274.945 147.374C274.945 146.128 275.957 145.117 277.205 145.117Z" fill-rule="evenodd" fill="#E1E5F0"/>
	<path d="M207.654 157.677L235.749 157.677C236.997 157.677 238.009 158.688 238.009 159.934C238.009 161.18 236.997 162.191 235.749 162.191L207.654 162.191C206.406 162.191 205.395 161.18 205.395 159.934C205.395 158.688 206.406 157.677 207.654 157.677ZM257.558 157.677L263.255 157.677C264.503 157.677 265.515 158.688 265.515 159.934C265.515 161.18 264.503 162.191 263.255 162.191L257.558 162.191C256.31 162.191 255.298 161.18 255.298 159.934C255.298 158.688 256.31 157.677 257.558 157.677Z" fill-rule="evenodd" fill="#A339FF"/>
	<path d="M243.805 132.557L249.502 132.557C250.75 132.557 251.762 133.568 251.762 134.814C251.762 136.06 250.75 137.071 249.502 137.071L243.805 137.071C242.557 137.071 241.545 136.06 241.545 134.814C241.545 133.568 242.557 132.557 243.805 132.557ZM277.205 170.237L302.942 170.237C304.19 170.237 305.202 171.248 305.202 172.494C305.202 173.74 304.19 174.751 302.942 174.751L277.205 174.751C275.957 174.751 274.945 173.74 274.945 172.494C274.945 171.248 275.957 170.237 277.205 170.237Z" fill-rule="evenodd" fill="#FF5645"/>
	<path d="M157.456 84.2794L206.574 84.2794C210.914 84.2794 214.433 87.7939 214.433 92.1294L214.433 116.857C214.433 121.192 210.914 124.707 206.574 124.707L157.456 124.707C153.116 124.707 149.597 121.192 149.597 116.857L149.597 92.1294C149.597 87.7939 153.116 84.2794 157.456 84.2794Z" fill-rule="evenodd" fill="#59DCBE"/>
	<path d="M172.252 93.9059C171.489 92.9559 170.143 92.8094 169.192 93.573L169.192 93.573L156.092 104.102Q155.925 104.236 155.788 104.4Q155.65 104.565 155.547 104.753Q155.444 104.941 155.38 105.145Q155.315 105.35 155.292 105.563Q155.269 105.776 155.288 105.989Q155.306 106.203 155.367 106.409Q155.427 106.614 155.526 106.805Q155.625 106.995 155.759 107.162Q156.031 107.5 156.411 107.708L170.164 115.234C171.233 115.819 172.533 115.438 173.118 114.369C173.703 113.3 173.323 112 172.253 111.415L171.208 113.324L172.253 111.415L161.359 105.453L171.919 96.9658L170.556 95.2694L171.919 96.9658C172.87 96.2023 173.016 94.856 172.252 93.9059Z" fill-rule="evenodd" fill="#FFFFFF"/>
	<path d="M189.823 94.0732C189.153 95.0916 189.427 96.4178 190.445 97.0878L201.49 104.353L191.016 111.529L191.016 111.529C190.011 112.218 189.762 113.549 190.451 114.554C191.14 115.56 192.471 115.809 193.476 115.12L192.232 113.304L193.476 115.12L206.625 106.112Q206.801 105.991 206.951 105.837Q207.101 105.684 207.218 105.505Q207.335 105.325 207.415 105.126Q207.495 104.927 207.534 104.716Q207.574 104.505 207.571 104.291Q207.568 104.077 207.524 103.867Q207.48 103.657 207.396 103.46Q207.311 103.263 207.19 103.086Q206.948 102.733 206.591 102.498L192.838 93.451L192.838 93.451C191.819 92.7812 190.493 93.0551 189.823 94.0732Z" fill-rule="evenodd" fill="#FFFFFF"/>
	<path d="M184.75 89.369C183.562 89.0985 182.416 89.8198 182.145 91.0083L176.16 117.31C175.889 118.498 176.61 119.645 177.799 119.915C178.987 120.186 180.133 119.464 180.404 118.276L178.282 117.793L180.404 118.276L186.389 91.9741L184.269 91.4915L186.389 91.9741C186.66 90.7856 185.938 89.6394 184.75 89.369Z" fill-rule="evenodd" fill="#FFFFFF"/>
	<path d="M220.916 368.849C220.98 368.844 221.046 368.842 221.112 368.842L299.308 368.842C300.827 368.842 302.058 370.072 302.058 371.589C302.058 373.107 300.827 374.337 299.308 374.337L221.112 374.337C221.046 374.337 220.98 374.335 220.916 374.33L220.916 421.633C220.916 423.151 219.684 424.381 218.165 424.381C216.646 424.381 215.415 423.151 215.415 421.633L215.415 285.436C215.415 284.114 216.35 283.01 217.595 282.747C217.947 282.583 218.34 282.492 218.754 282.492L452.555 282.492C454.074 282.492 455.305 283.722 455.305 285.24C455.305 286.757 454.074 287.987 452.555 287.987L220.916 287.987L220.916 368.849Z" fill-rule="evenodd" fill="#D8DEED"/>
	<path d="M275.21 276.605L278.989 261.375L250.623 261.375C247.675 261.375 245.239 259.138 245.239 256.43L245.239 213.294C245.2 210.547 247.597 208.309 250.583 208.309L336.913 208.309C339.859 208.309 342.296 210.547 342.296 213.255L342.296 256.43C342.296 259.138 339.859 261.375 336.913 261.375L302.343 261.375L300.783 276.605L311.018 276.605C312.59 276.605 313.808 277.861 313.808 279.392C313.808 280.962 312.551 282.179 311.018 282.179L267.205 282.179C265.633 282.179 264.415 280.923 264.415 279.392C264.336 277.861 265.633 276.605 267.205 276.605L275.21 276.605Z" fill-rule="evenodd" fill="#474961"/>
	<path d="M303.514 250.275L303.631 276.645L300.813 276.645L303.514 250.275Z" fill-rule="evenodd" fill="#FFFFFF"/>
	<defs/>
</svg>
